<svg xmlns="http://www.w3.org/2000/svg" viewBox="0 0 256 256">
  <defs>
    <radialGradient id="bg" cx="35%" cy="28%" r="80%">
      <stop offset="0" stop-color="#0f2f54" />
      <stop offset="0.55" stop-color="#071429" />
      <stop offset="1" stop-color="#050712" />
    </radialGradient>
    <linearGradient id="edge" x1="0" y1="0" x2="1" y2="1">
      <stop offset="0" stop-color="#74f2ff" />
      <stop offset="0.55" stop-color="#6cf7b2" />
      <stop offset="1" stop-color="#b368ff" />
    </linearGradient>
  </defs>

  <path
    d="M128 20 L220 74 V182 L128 236 L36 182 V74 Z"
    fill="url(#bg)"
    stroke="url(#edge)"
    stroke-width="18"
    stroke-linejoin="round"
  />
  <path
    d="M128 38 L204 82 V174 L128 218 L52 174 V82 Z"
    fill="none"
    stroke="#ffffff"
    stroke-width="6"
    stroke-linejoin="round"
    opacity="0.18"
  />

  <g fill="#ffffff" opacity="0.35">
    <circle cx="92" cy="92" r="3" />
    <circle cx="172" cy="92" r="2.5" />
    <circle cx="156" cy="202" r="2.8" />
  </g>

  <g fill="none" stroke="#eaf6ff" stroke-width="14" stroke-linecap="round" stroke-linejoin="round" opacity="0.92">
    <path d="M88 152 L128 104 L168 152" />
    <path d="M128 104 L128 186" />
  </g>
  <g fill="#eaf6ff">
    <circle cx="88" cy="152" r="12" />
    <circle cx="128" cy="104" r="14" />
    <circle cx="168" cy="152" r="12" />
    <circle cx="128" cy="186" r="12" />
  </g>
  <circle cx="128" cy="104" r="6" fill="#74f2ff" />
</svg>
