<svg xmlns="http://www.w3.org/2000/svg" viewBox="0 0 64 64">
  <defs>
    <radialGradient id="bg" cx="32" cy="22" r="44" gradientUnits="userSpaceOnUse">
      <stop offset="0" stop-color="#121a2f" />
      <stop offset="1" stop-color="#070a12" />
    </radialGradient>
    <linearGradient id="hexStroke" x1="8" y1="10" x2="56" y2="56" gradientUnits="userSpaceOnUse">
      <stop offset="0" stop-color="#79f2ff" stop-opacity="0.7" />
      <stop offset="0.6" stop-color="#d05cff" stop-opacity="0.45" />
      <stop offset="1" stop-color="#6cf7b2" stop-opacity="0.55" />
    </linearGradient>
    <linearGradient id="ship" x1="16" y1="16" x2="52" y2="52" gradientUnits="userSpaceOnUse">
      <stop offset="0" stop-color="#e8f4ff" />
      <stop offset="0.45" stop-color="#79f2ff" />
      <stop offset="1" stop-color="#6cf7b2" />
    </linearGradient>
  </defs>
  <polygon points="32,4 56,18 56,46 32,60 8,46 8,18" fill="url(#bg)" />
  <polygon
    points="32,4 56,18 56,46 32,60 8,46 8,18"
    fill="none"
    stroke="url(#hexStroke)"
    stroke-width="5"
    stroke-linejoin="round"
  />
  <g transform="translate(32 29.5) scale(0.82) translate(-32 -32)">
    <path
      fill="url(#ship)"
      d="M32 13c.8 0 1.5.4 1.9 1.1l17 33.5c.5 1 .3 2.1-.5 2.9-.8.7-2 .9-3 .4L32 43.6 16.6 51c-1 .5-2.2.3-3-.4-.8-.8-1-1.9-.5-2.9l17-33.5c.4-.7 1.1-1.1 1.9-1.1Z"
    />
    <path
      fill="#0a0d16"
      opacity="0.35"
      d="M32 43.6 47.4 51c1 .5 2.2.3 3-.4.8-.8 1-1.9.5-2.9L45 35.9c-4.1 3.5-8.5 6-13 7.7Z"
    />
  </g>
</svg>
